<?xml version="1.0" encoding="UTF-8" standalone="no"?>
<!-- Created with Inkscape (http://www.inkscape.org/) -->

<svg
   width="510"
   height="510"
   viewBox="0 0 134.9375 134.9375"
   version="1.1"
   id="svg1"
   xml:space="preserve"
   xmlns="http://www.w3.org/2000/svg"
   xmlns:svg="http://www.w3.org/2000/svg"><defs
     id="defs1" /><g
     id="g1"
     transform="matrix(0.396875,0,0,0.396875,-33.724056,-33.734175)"><rect
       height="509.99899"
       opacity="0"
       width="509.948"
       x="0"
       y="0"
       id="rect1-2" /><path
       d="m 255.64,373.914 c 53.345,0 86.673,-28.331 86.673,-67.612 0,-29.343 -22.119,-52.949 -52.527,-55.82 v -1.806 c 24.99,-3.725 44.552,-26.904 44.552,-53.008 0,-34.815 -31.782,-59.903 -76.632,-59.903 -40.698,0 -71.528,18.978 -78.163,48.527 -0.849,3.612 -1.168,6.321 -1.168,10.144 0,9.658 7.057,16.503 17.19,16.503 8.917,0 14.065,-4.353 17.034,-12.95 5.52,-18.783 21.118,-30.493 44.312,-30.493 25.167,0 40.446,12.299 40.446,32.682 0,20.593 -17.35,35.764 -41.236,35.764 h -15.863 c -8.862,0 -15.654,6.207 -15.654,15.335 0,8.863 6.792,15.335 15.654,15.335 h 17.247 c 28.244,0 47.562,15.49 47.562,38.1 0,22.62 -19.475,37.472 -48.897,37.472 -27.066,0 -42.247,-13.354 -48.092,-30.493 -3.607,-8.917 -8.7,-12.95 -17.298,-12.95 -10.134,0 -17.244,7.376 -17.244,17.033 0,3.823 0.319,6.002 1.222,9.614 7.391,28.807 39.968,48.526 80.882,48.526 z"
       fill="#ffffff"
       fill-opacity="0.85"
       id="path1" /></g></svg>
