<?xml version="1.0" encoding="UTF-8" standalone="no"?>
<!-- Created with Inkscape (http://www.inkscape.org/) -->

<svg
   width="510"
   height="510"
   viewBox="0 0 134.9375 134.9375"
   version="1.1"
   id="svg1"
   xml:space="preserve"
   xmlns="http://www.w3.org/2000/svg"
   xmlns:svg="http://www.w3.org/2000/svg"><defs
     id="defs1" /><g
     id="g1"
     transform="matrix(0.24804687,0,0,0.24804688,26.192067,26.145617)"><rect
       height="333.18799"
       opacity="0"
       width="332.81299"
       x="0"
       y="0"
       id="rect1-5" /><path
       d="m 6.65658,326.719 c 8.50002,8.75 23.25002,8.5 31.75002,0 l 128.0004,-128.25 128.25,128.25 c 8.5,8.5 23,8.75 31.5,0 9,-8.75 8.75,-23.25 0,-31.75 l -128,-128.25 128,-127.9999 c 8.75,-8.5 9,-23.25 0,-31.75001 -8.5,-8.75 -23,-8.5 -31.5,0 L 166.407,135.219 38.4066,6.96909 c -8.5,-8.5 -23.25,-8.75 -31.75002,0 -8.75,8.50001 -8.5,23.25001 0,31.75001 L 134.907,166.719 6.65658,294.969 c -8.5,8.5 -8.75,23 0,31.75 z"
       fill="#ffffff"
       fill-opacity="0.85"
       id="path1" /></g></svg>
