<?xml version="1.0" encoding="UTF-8" standalone="no"?>
<!-- Created with Inkscape (http://www.inkscape.org/) -->

<svg
   width="510"
   height="510"
   viewBox="0 0 134.9375 134.9375"
   version="1.1"
   id="svg1"
   xml:space="preserve"
   xmlns="http://www.w3.org/2000/svg"
   xmlns:svg="http://www.w3.org/2000/svg"><defs
     id="defs1" /><g
     id="g1"
     transform="matrix(0.396875,0,0,0.396875,-33.724056,-33.734175)"><rect
       height="509.99899"
       opacity="0"
       width="509.948"
       x="0"
       y="0"
       id="rect1-5" /><path
       d="m 253.142,373.914 c 50.754,0 85.51,-31.786 85.51,-79.994 0,-44.331 -31.732,-75.004 -77.334,-75.004 -20.259,0 -41.313,8.883 -50.364,21.497 h -1.806 l 5.856,-68.083 h 99.916 c 8.598,0 14.805,-6.316 14.805,-15.335 0,-9.074 -6.207,-15.39 -14.805,-15.39 H 211.549 c -16.341,0 -27.162,9.074 -28.33,23.56 l -6.704,83.223 c -1.114,14.27 7.322,23.873 21.116,23.873 9.284,0 14.854,-2.281 24.772,-9.657 11.98,-10.239 21.408,-14.077 34.459,-14.077 26.292,0 44.122,18.625 44.122,45.977 0,27.671 -20.75,48.156 -48.578,48.156 -20.495,0 -37.904,-10.067 -46.188,-27.043 -4.613,-7.803 -10.555,-11.571 -17.774,-11.571 -10.079,0 -16.871,6.737 -16.871,16.341 0,4.244 1.114,8.116 2.758,12.042 9.878,25.417 38.79,41.485 78.811,41.485 z"
       fill="#ffffff"
       fill-opacity="0.85"
       id="path1" /></g></svg>
