<?xml version="1.0" encoding="UTF-8"?>
<!--Generator: Apple Native CoreSVG 326-->
<!DOCTYPE svg
PUBLIC "-//W3C//DTD SVG 1.1//EN"
       "http://www.w3.org/Graphics/SVG/1.1/DTD/svg11.dtd">
<svg version="1.1" xmlns="http://www.w3.org/2000/svg" xmlns:xlink="http://www.w3.org/1999/xlink" viewBox="0 0 554.5 460.75">
 <g>
  <rect height="460.75" opacity="0" width="554.5" x="0" y="0"/>
  <path d="M463.25 460.75C515.5 460.75 541.75 435 541.75 383.25L541.75 78C541.75 26.25 515.5 0.5 463.25 0.5L246 0.5C216.75 0.5 191.5 8 171 29.75L23.75 182.75C7.5 199.5 0 214.5 0 230.25C0 245.75 7.25 261 23.75 277.75L171.25 430C192 451.5 217 460.5 246.25 460.5ZM462.75 420.5L245.5 420.5C226.5 420.5 214.75 416 201.5 402.5L55 251.25C46.5 242.5 44 236.5 44 230.25C44 223.75 46.75 217.75 55 209L201.25 57.25C214.25 44 226.5 40.75 245.25 40.75L462.75 40.75C487.75 40.75 501.5 54 501.5 80L501.5 381.25C501.5 407.25 487.75 420.5 462.75 420.5Z" fill="white" fill-opacity="0.85"/>
  <path d="M231.5 336.25C237 336.25 242 334 245.75 330L316.75 258.75L387.75 330C391.5 333.75 396.5 336.25 402.25 336.25C413.25 336.25 422.25 327 422.25 316C422.25 310.25 420 305.5 416.25 301.75L345.25 230.75L416.5 159.25C420.5 155 422.5 150.75 422.5 145.25C422.5 134 413.5 125.25 402.5 125.25C397.25 125.25 392.75 127 388.5 131.25L316.75 202.75L245.25 131.5C241.5 127.5 237 125.75 231.5 125.75C220.5 125.75 211.5 134.25 211.5 145.5C211.5 151 213.5 155.75 217.5 159.5L288.5 230.75L217.5 302C213.5 305.5 211.5 310.5 211.5 316C211.5 327 220.5 336.25 231.5 336.25Z" fill="white" fill-opacity="0.85"/>
 </g>
</svg>
