<?xml version="1.0" encoding="UTF-8" standalone="no"?>
<!-- Created with Inkscape (http://www.inkscape.org/) -->

<svg
   width="510"
   height="510"
   viewBox="0 0 134.9375 134.9375"
   version="1.1"
   id="svg1"
   xml:space="preserve"
   xmlns="http://www.w3.org/2000/svg"
   xmlns:svg="http://www.w3.org/2000/svg"><defs
     id="defs1" /><g
     id="g1"
     transform="matrix(0.396875,0,0,0.396875,-33.724056,-33.734175)"><rect
       height="509.99899"
       opacity="0"
       width="509.948"
       x="0"
       y="0"
       id="rect1-5" /><path
       d="m 221.08,373.59 c 8.49,0 14.324,-3.872 19.683,-13.794 l 92.958,-174.732 c 5.039,-9.019 5.942,-14.113 5.942,-19.369 0,-13.902 -10.561,-24.09 -26.907,-24.09 H 190.418 c -8.809,0 -14.806,6.316 -14.806,15.39 0,9.019 6.262,15.335 14.806,15.335 h 106.116 v 2.071 l -91.741,168.47 c -2.547,4.299 -3.661,7.959 -3.661,12.734 0,10.718 8.966,17.985 19.948,17.985 z"
       fill="#ffffff"
       fill-opacity="0.85"
       id="path1" /></g></svg>
