<?xml version="1.0" encoding="UTF-8" standalone="no"?>
<!-- Created with Inkscape (http://www.inkscape.org/) -->

<svg
   width="510"
   height="510"
   viewBox="0 0 134.9375 134.9375"
   version="1.1"
   id="svg1"
   xml:space="preserve"
   xmlns="http://www.w3.org/2000/svg"
   xmlns:svg="http://www.w3.org/2000/svg"><defs
     id="defs1" /><g
     id="g1"
     transform="matrix(0.24804688,0,0,0.24804688,16.309081,16.278075)"><rect
       height="412.75"
       opacity="0"
       width="412.5"
       x="0"
       y="0"
       id="rect1-7" /><path
       d="M 0,206.25 C 0,218.5 10.25,228.5 22.25,228.5 H 184 v 161.75 c 0,12 10,22.25 22.25,22.25 12.25,0 22.5,-10.25 22.5,-22.25 V 228.5 h 161.5 c 12,0 22.25,-10 22.25,-22.25 0,-12.25 -10.25,-22.5 -22.25,-22.5 H 228.75 V 22.25 C 228.75,10.25 218.5,0 206.25,0 194,0 184,10.25 184,22.25 v 161.5 H 22.25 C 10.25,183.75 0,194 0,206.25 Z"
       fill="#ffffff"
       fill-opacity="0.85"
       id="path1" /></g></svg>
