<?xml version="1.0" encoding="UTF-8" standalone="no"?>
<!-- Created with Inkscape (http://www.inkscape.org/) -->

<svg
   width="510"
   height="510"
   viewBox="0 0 134.9375 134.9375"
   version="1.1"
   id="svg1"
   xml:space="preserve"
   xmlns="http://www.w3.org/2000/svg"
   xmlns:svg="http://www.w3.org/2000/svg"><defs
     id="defs1" /><g
     id="g1"
     transform="matrix(0.396875,0,0,0.396875,-33.724056,-33.734175)"><rect
       height="509.99899"
       opacity="0"
       width="509.948"
       x="0"
       y="0"
       id="rect1-6" /><path
       d="m 248.622,373.914 c 60.315,0 93.058,-43.481 93.058,-127.07 0,-71.97 -32.695,-111.079 -88.646,-111.079 -51.756,0 -84.98,31.365 -84.98,79.941 0,46.764 35.496,73.63 74.685,73.63 33.176,0 52.915,-16.372 60.689,-34.905 h 2.017 c 0.53,54.93 -22.605,87.699 -57.299,87.699 -17.03,0 -28.859,-7.298 -39.327,-21.399 -4.087,-5.736 -9.073,-9.982 -17.033,-9.982 -9.55,0 -16.341,6.684 -16.341,16.342 0,2.974 0.584,5.521 1.433,8.651 5.947,17.059 29.564,38.172 71.744,38.172 z m 5.84,-112.653 c -28.363,0 -47.945,-20.009 -47.945,-47.361 0,-28.942 19.268,-48.205 48.053,-48.205 27.508,0 47.788,20.486 47.788,48.632 0,26.871 -19.852,46.934 -47.896,46.934 z"
       fill="#ffffff"
       fill-opacity="0.85"
       id="path1" /></g></svg>
