<?xml version="1.0" encoding="UTF-8" standalone="no"?>
<!-- Created with Inkscape (http://www.inkscape.org/) -->

<svg
   width="510"
   height="510"
   viewBox="0 0 134.9375 134.9375"
   version="1.1"
   id="svg1"
   xml:space="preserve"
   xmlns="http://www.w3.org/2000/svg"
   xmlns:svg="http://www.w3.org/2000/svg"><defs
     id="defs1" /><g
     id="g2"
     transform="matrix(0.396875,0,0,0.396875,-33.724056,-33.734175)"><rect
       height="509.99899"
       opacity="0"
       width="509.948"
       x="0"
       y="0"
       id="rect1-3" /><path
       d=""
       fill="#ffffff"
       fill-opacity="0.85"
       id="path1" /><path
       d="m 256.646,373.914 c 50.17,0 85.775,-29.348 85.775,-80.735 0,-47.295 -36.026,-73.835 -75.534,-73.835 -33.548,0 -52.964,16.853 -60.846,35.164 -0.584,0 -1.433,0 -2.017,0 0,-0.957 0,-1.649 0,-2.606 0,-51.205 23.189,-84.352 57.51,-84.352 17.295,0 27.166,7.774 34.346,16.629 8.009,7.856 12.994,12.048 21.484,12.048 8.333,0 15.016,-5.889 15.016,-14.752 0,-3.715 -0.584,-7.267 -2.228,-10.663 -7.748,-18.438 -35.01,-35.047 -67.239,-35.047 -59.044,0 -95.654,41.535 -95.654,124.557 0,34.54 6.056,59.422 16.626,76.426 16.097,26.31 43.256,37.166 72.761,37.166 z m -1.536,-30.086 c -28.044,0 -47.999,-20.431 -47.999,-49.162 0,-27.19 19.745,-46.772 48.107,-46.772 28.363,0 47.891,19.366 47.891,47.091 0,29.741 -18.679,48.843 -47.999,48.843 z"
       fill="#ffffff"
       fill-opacity="0.85"
       id="path2" /></g></svg>
