<?xml version="1.0" encoding="UTF-8" standalone="no"?>
<!-- Created with Inkscape (http://www.inkscape.org/) -->

<svg
   width="510"
   height="510"
   viewBox="0 0 134.9375 134.9375"
   version="1.1"
   id="svg1"
   xml:space="preserve"
   xmlns="http://www.w3.org/2000/svg"
   xmlns:svg="http://www.w3.org/2000/svg"><defs
     id="defs1" /><g
     id="g1"
     transform="matrix(0.24010938,0,0,0.24010938,25.689718,43.067634)"><rect
       height="203.25"
       opacity="0"
       width="348"
       x="0"
       y="0"
       id="rect1-8" /><path
       d="m 22.25,45.25 h 303.5 C 337.75,45.25 348,35 348,22.75 348,10.5 337.75,0.5 325.75,0.5 H 22.25 C 10.25,0.5 0,10.5 0,22.75 0,35 10.25,45.25 22.25,45.25 Z m 0,158 h 303.5 c 12,0 22.25,-10 22.25,-22.25 0,-12.25 -10.25,-22.5 -22.25,-22.5 H 22.25 C 10.25,158.5 0,168.75 0,181 c 0,12.25 10.25,22.25 22.25,22.25 z"
       fill="#ffffff"
       fill-opacity="0.85"
       id="path1" /></g></svg>
