<?xml version="1.0" encoding="UTF-8" standalone="no"?>
<!-- Created with Inkscape (http://www.inkscape.org/) -->

<svg
   width="510"
   height="510"
   viewBox="0 0 134.9375 134.9375"
   version="1.1"
   id="svg1"
   xml:space="preserve"
   xmlns="http://www.w3.org/2000/svg"
   xmlns:svg="http://www.w3.org/2000/svg"><defs
     id="defs1" /><g
     id="g1"
     transform="matrix(0.396875,0,0,0.396875,-33.724056,-33.734175)"><rect
       height="509.99899"
       opacity="0"
       width="509.948"
       x="0"
       y="0"
       id="rect1-5" /><path
       d="m 254.31,373.914 c 53.085,0 89.279,-27.379 89.279,-67.563 0,-28.013 -20.362,-51.035 -50.127,-56.988 v -1.541 c 24.769,-7.175 40.454,-27.272 40.454,-51.192 0,-35.88 -32.684,-60.865 -79.341,-60.865 -46.391,0 -79.076,24.985 -79.076,60.865 0,23.92 15.155,43.433 40.454,51.192 v 1.541 c -30.03,5.953 -50.127,29.24 -50.127,56.988 0,40.502 35.344,67.563 88.484,67.563 z m 0.53,-27.49 c -29.428,0 -50.924,-17.718 -50.924,-42.139 0,-23.675 21.761,-41.55 50.924,-41.55 29.957,0 50.924,17.609 50.924,41.55 0,24.421 -21.496,42.139 -50.924,42.139 z m -0.265,-109.957 c -24.745,0 -42.414,-15.377 -42.414,-36.711 0,-21.178 17.561,-36.235 42.414,-36.235 25.119,0 42.679,15.057 42.679,36.235 0,21.334 -17.668,36.711 -42.679,36.711 z"
       fill="#ffffff"
       fill-opacity="0.85"
       id="path1" /></g></svg>
