<?xml version="1.0" encoding="UTF-8" standalone="no"?>
<!-- Created with Inkscape (http://www.inkscape.org/) -->

<svg
   width="510"
   height="510"
   viewBox="0 0 134.9375 134.9375"
   version="1.1"
   id="svg1"
   xml:space="preserve"
   xmlns="http://www.w3.org/2000/svg"
   xmlns:svg="http://www.w3.org/2000/svg"><defs
     id="defs1" /><g
     id="g1"
     transform="matrix(0.18828215,0,0,0.18828215,24.469814,22.468751)"><rect
       height="478.00601"
       opacity="0"
       width="456.75"
       x="0"
       y="0"
       id="rect1" /><path
       d="m 86.5,233.128 c 53.75,0 86.25,-44.25 86.25,-114.75 C 172.75,47.8779 140,4.37788 86.5,4.37788 32.75,4.37788 0,48.1279 0,118.378 c 0,70.75 32.5,114.75 86.5,114.75 z m 0,-35 c -29,0 -46.25,-29.25 -46.25,-79.75 0,-49.7501 17.5,-79.2501 46.25,-79.2501 28.75,0 46,29.25 46,79.2501 0,50.5 -17,79.75 -46,79.75 z m 284,275.5 c 53.75,0 86.25,-44.25 86.25,-114.5 0,-70.75 -32.75,-114.25 -86.25,-114.25 -53.75,0 -86.5,43.75 -86.5,114.25 0,70.5 32.5,114.5 86.5,114.5 z m 0,-34.75 c -29,0 -46.25,-29.5 -46.25,-79.75 0,-50 17.5,-79.25 46.25,-79.25 28.75,0 46,29 46,79.25 0,50.25 -17,79.75 -46,79.75 z m -302,35.75 c 9.25,5.25 22.75,4.5 30.75,-7 L 393,33.3779 c 8.75,-12.5 3.5,-25.25002 -5.75,-30.75002 -8.75,-4.75 -21,-3.75 -29.75,8.75002 L 63.75,444.378 c -9,12.75 -4.5,24.75 4.75,30.25 z"
       fill="#ffffff"
       fill-opacity="0.85"
       id="path1" /></g></svg>
