<?xml version="1.0" encoding="UTF-8" standalone="no"?>
<!-- Created with Inkscape (http://www.inkscape.org/) -->

<svg
   width="510"
   height="510"
   viewBox="0 0 134.9375 134.9375"
   version="1.1"
   id="svg1"
   xml:space="preserve"
   xmlns="http://www.w3.org/2000/svg"
   xmlns:svg="http://www.w3.org/2000/svg"><defs
     id="defs1" /><g
     id="g1"
     transform="matrix(0.396875,0,0,0.396875,-33.724056,-33.734175)"><rect
       height="509.99899"
       opacity="0"
       width="509.948"
       x="0"
       y="0"
       id="rect1-1" /><path
       d="m 287.471,373.914 c 11.777,0 18.568,-7.64 18.568,-20.953 v -30.637 h 19.128 c 9.603,0 16.395,-6.846 16.395,-16.395 0,-9.869 -6.527,-16.395 -16.395,-16.395 H 306.039 V 162.137 c 0,-15.6 -12.096,-26.372 -29.978,-26.372 -17.612,0 -28.275,6.208 -38.306,21.543 -25.775,38.844 -56.789,84.833 -77.627,118.588 -4.986,8.063 -6.792,14.379 -6.792,21.7 0,14.86 10.241,24.728 26.058,24.728 h 89.773 v 30.637 c 0,13.048 6.791,20.953 18.304,20.953 z m -18.304,-84.38 h -78.899 v -1.542 c 19.022,-32.885 50.911,-80.397 77.093,-119.691 h 1.806 z"
       fill="#ffffff"
       fill-opacity="0.85"
       id="path1" /></g></svg>
