<?xml version="1.0" encoding="UTF-8" standalone="no"?>
<!-- Created with Inkscape (http://www.inkscape.org/) -->

<svg
   width="509.99997"
   height="510"
   viewBox="0 0 134.93748 134.9375"
   version="1.1"
   id="svg1"
   xml:space="preserve"
   xmlns="http://www.w3.org/2000/svg"
   xmlns:svg="http://www.w3.org/2000/svg"><defs
     id="defs1" /><g
     id="layer1"><g
       id="g2"
       transform="matrix(0.396875,0,0,0.396875,-33.724056,-33.734175)"><rect
         height="509.99899"
         opacity="0"
         width="509.948"
         x="0"
         y="0"
         id="rect1" /><path
         d=""
         fill="#ffffff"
         fill-opacity="0.85"
         id="path1" /><path
         d="m 254.575,373.914 c 52.982,0 88.484,-47.791 88.484,-119.074 0,-71.284 -35.502,-119.075 -88.484,-119.075 -52.718,0 -88.219,47.791 -88.219,119.075 0,71.283 35.501,119.074 88.219,119.074 z m 0,-32.049 c -29.747,0 -49.756,-34.737 -49.756,-87.025 0,-52.288 20.009,-87.025 49.756,-87.025 30.012,0 50.021,34.737 50.021,87.025 0,52.288 -20.009,87.025 -50.021,87.025 z"
         fill="#ffffff"
         fill-opacity="0.85"
         id="path2" /></g></g></svg>
