<?xml version="1.0" encoding="UTF-8" standalone="no"?>
<!-- Created with Inkscape (http://www.inkscape.org/) -->

<svg
   width="510"
   height="510"
   viewBox="0 0 134.9375 134.9375"
   version="1.1"
   id="svg1"
   xml:space="preserve"
   xmlns="http://www.w3.org/2000/svg"
   xmlns:svg="http://www.w3.org/2000/svg"><defs
     id="defs1" /><g
     id="g1"
     transform="matrix(0.24804688,0,0,0.24804688,16.309081,21.611083)"><rect
       height="369.75"
       opacity="0"
       width="412.5"
       x="0"
       y="0"
       id="rect1-4" /><path
       d="m 206.25,75.75 c 20.5,0 37,-16.75 37,-36.75 0,-20.5 -16.5,-37 -37,-37 C 186,2 169.5,18.5 169.5,39 c 0,20 16.5,36.75 36.75,36.75 z m 0,294 c 20.5,0 37,-16.5 37,-37 0,-20.25 -16.5,-36.75 -37,-36.75 -20.25,0 -36.75,16.5 -36.75,36.75 0,20.5 16.5,37 36.75,37 z M 22.25,207.5 h 368 c 12,0 22.25,-10.25 22.25,-22.5 0,-12.25 -10.25,-22.25 -22.25,-22.25 h -368 c -12,0 -22.25,10 -22.25,22.25 0,12.25 10.25,22.5 22.25,22.5 z"
       fill="#ffffff"
       fill-opacity="0.85"
       id="path1" /></g></svg>
