<?xml version="1.0" encoding="UTF-8" standalone="no"?>
<!-- Created with Inkscape (http://www.inkscape.org/) -->

<svg
   width="510"
   height="510"
   viewBox="0 0 134.9375 134.9375"
   version="1.1"
   id="svg1"
   xml:space="preserve"
   xmlns="http://www.w3.org/2000/svg"
   xmlns:svg="http://www.w3.org/2000/svg"><defs
     id="defs1" /><g
     id="g1"
     transform="matrix(0.33615312,0,0,0.33615312,-1.6330256,26.405966)"><rect
       height="244.31"
       opacity="0"
       width="404.836"
       x="0"
       y="0"
       id="rect1-4" /><path
       d="m 311.135,239.269 c 44.227,0 79.479,-21.123 91.473,-54.78 1.698,-4.466 2.228,-7.543 2.228,-11.415 0,-10.614 -6.629,-17.141 -17.19,-17.141 -7.484,0 -12.367,3.769 -16.714,12.264 -9.923,24.642 -31.002,37.963 -59.267,37.963 -39.798,0 -66.512,-34.58 -66.512,-86.23 0,-51.8609 26.714,-86.7602 66.512,-86.7602 28.265,0 49.398,13.3747 59.267,37.9632 4.347,8.4947 9.23,12.2637 16.714,12.2637 10.561,0 17.19,-6.527 17.19,-17.0872 0,-3.9259 -0.53,-7.0027 -2.228,-11.4687 C 390.56,21.2921 355.2,0.114451 311.135,0.114451 c -64.677,0 -106.3,46.784749 -106.3,119.815549 0,72.819 41.357,119.339 106.3,119.339 z M 24.2076,238.35 c 9.0731,0 15.384,-4.191 19.3638,-15.758 L 61.7262,169.43 h 89.3508 l 18.366,53.162 c 3.714,11.513 10.079,15.758 19.207,15.758 11.193,0 18.514,-7.057 18.514,-17.082 0,-3.98 -0.849,-7.533 -2.812,-12.891 L 134.304,19.5751 C 129.529,6.68375 119.823,0 106.136,0 92.7149,0 83.5386,6.68375 78.499,19.5751 L 8.39632,208.377 c -1.69804,5.358 -2.54712,8.911 -2.54712,12.837 0,10.133 7.322,17.136 18.3584,17.136 z M 71.7563,139.29 104.969,42.6204 h 2.811 l 33.212,96.6696 z"
       fill="#ffffff"
       fill-opacity="0.85"
       id="path1" /></g></svg>
