<?xml version="1.0" encoding="UTF-8" standalone="no"?>
<!-- Created with Inkscape (http://www.inkscape.org/) -->

<svg
   width="510"
   height="510"
   viewBox="0 0 134.9375 134.9375"
   version="1.1"
   id="svg1"
   xml:space="preserve"
   xmlns="http://www.w3.org/2000/svg"
   xmlns:svg="http://www.w3.org/2000/svg"><defs
     id="defs1" /><g
     id="g1"
     transform="matrix(0.396875,0,0,0.396875,-33.724056,-33.734175)"><rect
       height="509.99899"
       opacity="0"
       width="509.948"
       x="0"
       y="0"
       id="rect1-9" /><path
       d="M 197.906,368.074 H 326.35 c 9.604,0 16.66,-6.315 16.66,-16.394 0,-10.188 -7.056,-16.185 -16.66,-16.185 h -91.046 v -1.806 l 59.229,-63.283 c 22.237,-23.783 37.528,-43.447 37.528,-71.283 0,-38.005 -30.235,-63.358 -76.627,-63.358 -35.512,0 -66.769,21.53 -75.047,49.661 -0.849,3.558 -1.168,6.797 -1.168,10.09 0,9.712 6.526,16.028 16.184,16.028 8.97,0 13.27,-5.678 17.563,-12.74 6.684,-15.083 19.794,-31.254 44.323,-31.254 23.632,0 39.435,13.835 39.435,34.434 0,18.183 -15.286,33.548 -29.976,49.303 l -79.986,85.636 c -4.299,4.618 -6.527,9.657 -6.527,14.805 0,10.031 6.581,16.346 17.671,16.346 z"
       fill="#ffffff"
       fill-opacity="0.85"
       id="path1" /></g></svg>
