<?xml version="1.0" encoding="UTF-8" standalone="no"?>
<!-- Created with Inkscape (http://www.inkscape.org/) -->

<svg
   width="510"
   height="510"
   viewBox="0 0 134.9375 134.9375"
   version="1.1"
   id="svg1"
   xml:space="preserve"
   xmlns="http://www.w3.org/2000/svg"
   xmlns:svg="http://www.w3.org/2000/svg"><defs
     id="defs1" /><g
     id="g1"
     transform="matrix(0.21417336,0,0,0.21417336,16.81675,16.897065)"><rect
       height="472.25"
       opacity="0"
       width="473"
       x="0"
       y="0"
       id="rect1-1" /><path
       d="M 0,125.5 C 0,135.25 7.75,143 17.75,143 H 68.5 v 51 c 0,10 8,17.5 17.5,17.5 10,0 17.75,-7.75 17.75,-17.5 v -51 h 51 c 9.75,0 17.75,-7.75 17.75,-17.5 0,-9.75 -8,-17.75 -17.75,-17.75 h -51 v -51 C 103.75,47 95.75,39 86,39 76.25,39 68.5,47 68.5,56.75 v 51 H 17.75 c -10,0 -17.75,8 -17.75,17.75 z m 253.75,120.75 145,-214.5 c 3.5,-4.75 4.75,-9 4.75,-14 C 403.5,7.75 394.75,0 384.5,0 375.75,0 371,2.75 364,13 L 220.5,226 75.25,440 c -3.25,4.75 -5,8.75 -5,14.25 0,10.75 9,18 20,18 8.25,0 13,-3.5 19.5,-12.75 z M 300.5,364 c 0,9.75 7.75,17.75 17.5,17.75 h 137.25 c 9.75,0 17.75,-8 17.75,-17.75 0,-9.75 -8,-17.5 -17.75,-17.5 H 318 c -9.75,0 -17.5,7.75 -17.5,17.5 z"
       fill="#ffffff"
       fill-opacity="0.85"
       id="path1" /></g></svg>
