<?xml version="1.0" encoding="UTF-8" standalone="no"?>
<!-- Created with Inkscape (http://www.inkscape.org/) -->

<svg
   width="510"
   height="510"
   viewBox="0 0 134.9375 134.9375"
   version="1.1"
   id="svg1"
   xml:space="preserve"
   xmlns="http://www.w3.org/2000/svg"
   xmlns:svg="http://www.w3.org/2000/svg"><defs
     id="defs1" /><g
     id="g1"
     transform="matrix(0.396875,0,0,0.396875,-33.724056,-33.734175)"><rect
       height="509.99899"
       opacity="0"
       width="509.948"
       x="0"
       y="0"
       id="rect1-7" /><path
       d="m 267.644,373.914 c 12.837,0 20.158,-8.435 20.158,-22.543 V 158.417 c 0,-14.481 -7.748,-22.652 -21.17,-22.652 -9.284,0 -15.756,2.547 -26.528,9.923 l -44.956,30.531 c -5.412,3.715 -7.694,7.749 -7.694,14.011 0,7.694 6.262,14.805 14.275,14.805 3.661,0 6.473,-0.584 12.145,-4.402 l 32.335,-21.252 h 1.806 v 171.99 c 0,14.108 7.322,22.543 19.629,22.543 z"
       fill="#ffffff"
       fill-opacity="0.85"
       id="path1" /></g></svg>
